<?xml version="1.0" encoding="UTF-8" standalone="no"?>
<!-- Created with Inkscape (http://www.inkscape.org/) -->

<svg
   width="450"
   height="100"
   viewBox="0 0 119.0625 26.458335"
   version="1.1"
   id="svg5"
   inkscape:version="1.1.2 (b8e25be833, 2022-02-05)"
   sodipodi:docname="ecommerce_logo_outlined.svg"
   xmlns:inkscape="http://www.inkscape.org/namespaces/inkscape"
   xmlns:sodipodi="http://sodipodi.sourceforge.net/DTD/sodipodi-0.dtd"
   xmlns="http://www.w3.org/2000/svg"
   xmlns:svg="http://www.w3.org/2000/svg">
  <sodipodi:namedview
     id="namedview7"
     pagecolor="#ffffff"
     bordercolor="#666666"
     borderopacity="1.0"
     inkscape:pageshadow="2"
     inkscape:pageopacity="0.0"
     inkscape:pagecheckerboard="0"
     inkscape:document-units="mm"
     showgrid="false"
     units="px"
     inkscape:zoom="1.0368618"
     inkscape:cx="86.800382"
     inkscape:cy="50.151332"
     inkscape:window-width="1920"
     inkscape:window-height="1009"
     inkscape:window-x="1912"
     inkscape:window-y="-8"
     inkscape:window-maximized="1"
     inkscape:current-layer="layer1" />
  <defs
     id="defs2" />
  <g
     inkscape:label="Camada 1"
     inkscape:groupmode="layer"
     id="layer1">
    <path
       d="m 5.6470549,19.67368 q -1.1880944,0 -1.8603064,-0.797275 Q 3.1145372,18.07913 3.302131,16.672176 L 4.8028832,6.1981783 Q 5.0530077,4.5410973 6.3505335,3.3530028 7.6480578,2.164906 9.3051389,2.164906 H 22.843172 q 1.65708,0 2.954604,1.1880968 1.297527,1.1880945 1.547651,2.8451755 l 1.469486,10.4739977 q 0.187583,1.406954 -0.484617,2.204229 -0.672211,0.797275 -1.860308,0.797275 -0.719109,0 -1.21936,-0.234495 -0.500252,-0.234496 -0.844174,-0.578417 L 21.154826,15.60914 H 10.962219 L 7.7105885,18.860768 Q 7.3666683,19.204691 6.8664167,19.439185 6.3661652,19.67368 5.6470549,19.67368 Z m 0.5627815,-2.001004 3.9394746,-3.939473 h 11.818421 l 3.939474,3.939473 q 0.156337,0.156339 0.562782,0.28139 0.281392,0 0.422087,-0.28139 0.140692,-0.281392 0.07816,-0.562782 L 25.469481,6.5108327 Q 25.313142,5.4165364 24.547145,4.7286911 23.781135,4.0408458 22.843165,4.0408458 H 9.2738675 q -0.9379699,0 -1.7039802,0.6878453 Q 6.8038804,5.4165364 6.6475515,6.5108327 L 5.1467994,17.109894 q -0.062536,0.28139 0.078158,0.562782 0.1406924,0.28139 0.4220843,0.28139 0.2188499,0 0.5627823,-0.28139 z M 22.93697,12.16992 q 0.500249,0 0.875436,-0.375187 0.375189,-0.375189 0.375189,-0.87544 0,-0.500252 -0.375189,-0.87544 -0.375187,-0.3751872 -0.875436,-0.3751872 -0.500252,0 -0.875439,0.3751872 -0.375189,0.375188 -0.375189,0.87544 0,0.500251 0.375189,0.87544 0.375187,0.375187 0.875439,0.375187 z M 20.279386,8.1053828 q 0.500251,0 0.87544,-0.3751876 0.375187,-0.3751883 0.375187,-0.8754398 0,-0.5002491 -0.375187,-0.8754367 -0.375189,-0.3751877 -0.87544,-0.3751877 -0.500249,0 -0.875437,0.3751877 -0.375188,0.3751876 -0.375188,0.8754367 0,0.5002515 0.375188,0.8754398 0.375188,0.3751876 0.875437,0.3751876 z m -9.848683,3.9082082 h 1.563283 V 9.6686658 h 2.344925 V 8.1053828 H 11.993986 V 5.7604567 H 10.430703 V 8.1053828 H 8.0857771 v 1.563283 h 2.3449259 z m 5.62782,-1.031768 q 0,0 0,0 0,0 0,0 0,0 0,0 0,0 0,0 0,0 0,0 0,0 0,0 0,0 0,0 0,0 0,0 0,0 0,0 0,0 0,0 0,0 0,0 0,0 0,0 z"
       id="path2-2"
       style="fill:#ffffff;stroke-width:0.625312" />
    <text
       xml:space="preserve"
       style="font-style:normal;font-weight:normal;font-size:17.6389px;line-height:1.25;font-family:sans-serif;fill:#ffffff;fill-opacity:1;stroke:none;stroke-width:0.264583"
       x="29.600536"
       y="22.965933"
       id="text3553"><tspan
         sodipodi:role="line"
         id="tspan3551"
         style="font-style:normal;font-variant:normal;font-weight:normal;font-stretch:normal;font-size:17.6389px;font-family:'Hind Madurai';-inkscape-font-specification:'Hind Madurai';fill:#ffffff;stroke-width:0.264583"
         x="29.600536"
         y="22.965933">ecommerce</tspan></text>
  </g>
</svg>
