<?xml version="1.0" encoding="UTF-8" standalone="no"?>
<!-- Created with Inkscape (http://www.inkscape.org/) -->

<svg
   width="150mm"
   height="36mm"
   viewBox="0 0 150 36.000003"
   version="1.1"
   id="svg5"
   inkscape:version="1.2 (dc2aedaf03, 2022-05-15)"
   sodipodi:docname="ecommerce_logo_full_filled_dark_mode.svg"
   xmlns:inkscape="http://www.inkscape.org/namespaces/inkscape"
   xmlns:sodipodi="http://sodipodi.sourceforge.net/DTD/sodipodi-0.dtd"
   xmlns="http://www.w3.org/2000/svg"
   xmlns:svg="http://www.w3.org/2000/svg">
  <sodipodi:namedview
     id="namedview7"
     pagecolor="#ffffff"
     bordercolor="#666666"
     borderopacity="1.0"
     inkscape:pageshadow="2"
     inkscape:pageopacity="0.0"
     inkscape:pagecheckerboard="0"
     inkscape:document-units="mm"
     showgrid="false"
     units="px"
     inkscape:zoom="0.41881058"
     inkscape:cx="236.38371"
     inkscape:cy="44.172714"
     inkscape:window-width="958"
     inkscape:window-height="1000"
     inkscape:window-x="1913"
     inkscape:window-y="0"
     inkscape:window-maximized="0"
     inkscape:current-layer="layer1"
     inkscape:showpageshadow="2"
     inkscape:deskcolor="#d1d1d1" />
  <defs
     id="defs2" />
  <g
     inkscape:label="Camada 1"
     inkscape:groupmode="layer"
     id="layer1">
    <rect
       style="fill:#afafaf;fill-opacity:0.80000001;stroke-width:0.387055"
       id="rect29"
       width="150"
       height="36"
       x="1.368103e-09"
       y="4.4714355e-08" />
    <path
       d="m 5.307825,28.098749 q -1.1880944,0 -1.8603064,-0.797275 Q 2.7753073,26.504199 2.9629011,25.097245 L 4.4636533,14.623247 Q 4.7137778,12.966166 6.0113036,11.778072 7.3088279,10.589975 8.965909,10.589975 h 13.538033 q 1.65708,0 2.954604,1.188097 1.297527,1.188094 1.547651,2.845175 l 1.469486,10.473998 q 0.187583,1.406954 -0.484617,2.204229 -0.672211,0.797275 -1.860308,0.797275 -0.719109,0 -1.21936,-0.234495 -0.500252,-0.234496 -0.844174,-0.578417 L 20.815596,24.034209 H 10.622989 L 7.3713586,27.285837 Q 7.0274384,27.62976 6.5271868,27.864254 6.0269353,28.098749 5.307825,28.098749 Z M 5.8706065,26.097745 9.8100811,22.158272 H 21.628502 l 3.939474,3.939473 q 0.156337,0.156339 0.562782,0.28139 0.281392,0 0.422087,-0.28139 0.140692,-0.281392 0.07816,-0.562782 L 25.130251,14.935902 q -0.156339,-1.094297 -0.922336,-1.782142 -0.76601,-0.687845 -1.70398,-0.687845 H 8.9346376 q -0.9379699,0 -1.7039802,0.687845 -0.7660069,0.687845 -0.9223358,1.782142 L 4.8075695,25.534963 q -0.062536,0.28139 0.078158,0.562782 0.1406924,0.28139 0.4220843,0.28139 0.2188499,0 0.5627823,-0.28139 z M 22.59774,20.594989 q 0.500249,0 0.875436,-0.375187 0.375189,-0.375189 0.375189,-0.87544 0,-0.500252 -0.375189,-0.87544 -0.375187,-0.375187 -0.875436,-0.375187 -0.500252,0 -0.875439,0.375187 -0.375189,0.375188 -0.375189,0.87544 0,0.500251 0.375189,0.87544 0.375187,0.375187 0.875439,0.375187 z m -2.657584,-4.064537 q 0.500251,0 0.87544,-0.375188 0.375187,-0.375188 0.375187,-0.87544 0,-0.500249 -0.375187,-0.875436 -0.375189,-0.375188 -0.87544,-0.375188 -0.500249,0 -0.875437,0.375188 -0.375188,0.375187 -0.375188,0.875436 0,0.500252 0.375188,0.87544 0.375188,0.375188 0.875437,0.375188 z m -9.848683,3.908208 h 1.563283 v -2.344925 h 2.344925 v -1.563283 h -2.344925 v -2.344926 h -1.563283 v 2.344926 H 7.7465472 v 1.563283 h 2.3449258 z m 5.62782,-1.031768 q 0,0 0,0 0,0 0,0 0,0 0,0 0,0 0,0 0,0 0,0 0,0 0,0 0,0 0,0 0,0 0,0 0,0 0,0 0,0 0,0 0,0 0,0 0,0 0,0 z"
       id="path2-2"
       style="fill:#ffffff;stroke-width:0.625312" />
    <text
       xml:space="preserve"
       style="font-style:normal;font-weight:normal;font-size:17.6389px;line-height:1.25;font-family:sans-serif;fill:#ffffff;fill-opacity:1;stroke:none;stroke-width:0.264583"
       x="29.261307"
       y="31.391003"
       id="text3553"><tspan
         sodipodi:role="line"
         id="tspan3551"
         style="font-style:normal;font-variant:normal;font-weight:normal;font-stretch:normal;font-size:17.6389px;font-family:'Hind Madurai';-inkscape-font-specification:'Hind Madurai';fill:#ffffff;stroke-width:0.264583"
         x="29.261307"
         y="31.391003">ecommerce</tspan><tspan
         sodipodi:role="line"
         style="font-style:normal;font-variant:normal;font-weight:normal;font-stretch:normal;font-size:17.6389px;font-family:'Hind Madurai';-inkscape-font-specification:'Hind Madurai';fill:#ffffff;stroke-width:0.264583"
         x="29.261307"
         y="53.439625"
         id="tspan270" /></text>
    <text
       xml:space="preserve"
       style="font-style:normal;font-weight:normal;font-size:17.6389px;line-height:1.25;font-family:sans-serif;fill:#ffffff;fill-opacity:1;stroke:none;stroke-width:0.264583"
       x="113.51018"
       y="16.042233"
       id="text3553-2"><tspan
         sodipodi:role="line"
         id="tspan3551-5"
         style="font-style:normal;font-variant:normal;font-weight:normal;font-stretch:normal;font-size:17.6389px;font-family:'Hind Madurai';-inkscape-font-specification:'Hind Madurai';fill:#ffffff;stroke-width:0.264583"
         x="113.51018"
         y="16.042233"><tspan
           style="fill:#ffcc00"
           id="tspan308">X</tspan><tspan
           style="fill:#008000"
           id="tspan412">Y</tspan><tspan
           style="fill:#ff0000"
           id="tspan516">Z</tspan></tspan><tspan
         sodipodi:role="line"
         style="font-style:normal;font-variant:normal;font-weight:normal;font-stretch:normal;font-size:17.6389px;font-family:'Hind Madurai';-inkscape-font-specification:'Hind Madurai';fill:#ffffff;stroke-width:0.264583"
         x="113.51018"
         y="38.090858"
         id="tspan270-2" /></text>
  </g>
</svg>
